<svg width="1440" height="457" viewBox="0 0 1440 457" fill="none" xmlns="http://www.w3.org/2000/svg">
<rect y="-1" width="1440" height="458" fill="url(#paint0_linear_0_1)"/>
<path d="M177.89 111.165L205.08 100.135L177.89 87.7446V74.7446L222.2 96.8946V104.425L177.89 124.085V111.175V111.165Z" fill="white"/>
<path d="M86.31 87.6549L59.12 98.6849L86.31 111.075V124.075L42 101.925V94.3949L86.31 74.7349V87.6449V87.6549Z" fill="white"/>
<path d="M153.77 77.405V107.015C153.77 111.145 152.98 114.725 151.41 117.765C149.84 120.805 147.48 123.145 144.34 124.795C141.2 126.445 137.26 127.265 132.53 127.265C125.76 127.265 120.59 125.525 117.02 122.045C113.45 118.565 111.67 113.655 111.67 107.305V77.395H125.03V106.265C125.03 109.745 125.68 112.265 126.98 113.835C128.28 115.405 130.2 116.195 132.73 116.195C134.55 116.195 136.03 115.855 137.17 115.165C138.31 114.485 139.15 113.395 139.68 111.915C140.21 110.435 140.47 108.525 140.47 106.195V77.395H153.76L153.77 77.405Z" fill="white"/>
<path d="M122.832 149.192C122.171 149.192 121.6 149.096 121.12 148.904C120.64 148.712 120.24 148.435 119.92 148.072C119.611 147.709 119.376 147.272 119.216 146.76C119.056 146.237 118.976 145.645 118.976 144.984V138.584H121.536V145.256C121.536 145.619 121.579 145.928 121.664 146.184C121.749 146.44 121.888 146.637 122.08 146.776C122.272 146.915 122.523 146.984 122.832 146.984C123.141 146.984 123.392 146.915 123.584 146.776C123.787 146.637 123.931 146.44 124.016 146.184C124.112 145.928 124.16 145.619 124.16 145.256V138.584H126.624V144.984C126.624 145.645 126.549 146.237 126.4 146.76C126.251 147.272 126.021 147.709 125.712 148.072C125.403 148.435 125.008 148.712 124.528 148.904C124.059 149.096 123.493 149.192 122.832 149.192ZM130.858 149L127.738 138.584H130.442L131.626 143.288C131.775 143.853 131.908 144.408 132.026 144.952C132.143 145.485 132.276 146.035 132.426 146.6H132.49C132.639 146.035 132.772 145.485 132.89 144.952C133.007 144.408 133.14 143.853 133.29 143.288L134.426 138.584H137.05L133.93 149H130.858ZM137.252 149L140.452 138.584H143.524L146.724 149H144.02L142.756 143.832C142.638 143.32 142.505 142.771 142.356 142.184C142.217 141.597 142.084 141.037 141.956 140.504H141.891C141.785 141.037 141.662 141.597 141.524 142.184C141.396 142.771 141.268 143.32 141.14 143.832L139.876 149H137.252ZM139.46 146.648V144.68H144.484V146.648H139.46Z" fill="white"/>
<rect width="27.2364" height="27.2364" transform="matrix(0.160033 0.987112 -0.995307 0.0967674 262.858 347.535)" fill="#98F3FF"/>
<rect width="27.2364" height="18.6349" transform="matrix(0.160033 0.987112 -0.610409 0.792087 235.75 350.171)" fill="#EEF2FF"/>
<rect width="27.2364" height="18.6349" transform="matrix(0.995307 -0.0967674 -0.610409 0.792087 240.108 377.056)" fill="#5526B3"/>
<rect width="7.97893" height="7.97893" transform="matrix(0.753828 0.657071 -0.810363 0.585928 110.24 248.284)" fill="#98F3FF"/>
<rect width="7.97893" height="4.96403" transform="matrix(0.753828 0.657071 -0.0454356 0.998967 103.774 252.959)" fill="#EEF2FF"/>
<rect width="7.97893" height="4.96403" transform="matrix(0.810363 -0.585928 -0.0454356 0.998967 109.789 258.202)" fill="#5526B3"/>
<path d="M670.527 158.614L678.821 140.171L682.967 130.95L674.674 149.393L670.527 158.614Z" fill="#EEF2FF"/>
<path d="M658.702 142.21L666.995 123.767L682.968 130.95L674.674 149.393L658.702 142.21Z" fill="#98F3FF"/>
<path d="M658.702 142.211L670.528 158.614L674.674 149.393L658.702 142.211Z" fill="#5526B3"/>
<path d="M359.469 104.21L352.365 95.1431L348.813 90.6099L355.917 99.6764L359.469 104.21Z" fill="#EEF2FF"/>
<path d="M348.065 105.828L340.961 96.7616L348.813 90.6095L355.917 99.676L348.065 105.828Z" fill="#98F3FF"/>
<path d="M348.065 105.828L359.469 104.209L355.917 99.6759L348.065 105.828Z" fill="#5526B3"/>
<path d="M1151.88 100.248L1148.19 81.374L1150.89 73.4956L1154.58 92.3699L1151.88 100.248Z" fill="#EEF2FF"/>
<path d="M1166.38 87.6092L1162.68 68.7349L1159.98 76.6133L1163.68 95.4876L1166.38 87.6092Z" fill="#5526B3"/>
<path d="M1166.38 87.609L1162.68 68.7347L1150.89 73.4956L1154.58 92.3699L1166.38 87.609Z" fill="#98F3FF"/>
<path d="M1166.38 87.6092L1163.68 95.4876L1151.88 100.249L1154.58 92.3701L1166.38 87.6092Z" fill="#5526B3"/>
<path d="M1366.6 382.395L1354.81 377.625L1352.91 373.431L1364.7 378.201L1366.6 382.395Z" fill="#EEF2FF"/>
<path d="M1370.8 370.389L1359.01 365.619L1360.9 369.813L1372.7 374.583L1370.8 370.389Z" fill="#5526B3"/>
<path d="M1370.8 370.389L1359 365.619L1352.91 373.432L1364.7 378.202L1370.8 370.389Z" fill="#98F3FF"/>
<path d="M1370.8 370.389L1372.7 374.583L1366.6 382.396L1364.7 378.202L1370.8 370.389Z" fill="#5526B3"/>
<defs>
<linearGradient id="paint0_linear_0_1" x1="414" y1="-131.5" x2="494.5" y2="615" gradientUnits="userSpaceOnUse">
<stop stop-color="#25095E"/>
<stop offset="0.487503" stop-color="#37049D"/>
<stop offset="1" stop-color="#61268F"/>
</linearGradient>
</defs>
</svg>
