<svg width="201" height="64" viewBox="0 0 201 64" fill="none" xmlns="http://www.w3.org/2000/svg">
<path d="M145.89 47.1651L173.08 36.1351L145.89 23.7451V10.7451L190.2 32.8951V40.4251L145.89 60.0851V47.1751V47.1651Z" fill="#5526B3"/>
<path d="M54.31 23.6551L27.12 34.6851L54.31 47.0751V60.0751L10 37.9251V30.3951L54.31 10.7351V23.6451V23.6551Z" fill="#5526B3"/>
<path d="M121.77 13.405V43.015C121.77 47.145 120.98 50.725 119.41 53.765C117.84 56.805 115.48 59.145 112.34 60.795C109.2 62.445 105.26 63.265 100.53 63.265C93.7599 63.265 88.5899 61.525 85.0199 58.045C81.4499 54.565 79.6699 49.655 79.6699 43.305V13.395H93.0299V42.265C93.0299 45.745 93.6799 48.265 94.9799 49.835C96.2799 51.405 98.1999 52.195 100.73 52.195C102.55 52.195 104.03 51.855 105.17 51.165C106.31 50.485 107.15 49.395 107.68 47.915C108.21 46.435 108.47 44.525 108.47 42.195V13.395H121.76L121.77 13.405Z" fill="#5526B3"/>
</svg>
